<svg width="63" height="64" viewBox="0 0 63 64" fill="none" xmlns="http://www.w3.org/2000/svg">
<path d="M31.4812 63.8441C48.6608 63.8441 62.5875 49.6896 62.5875 32.2292C62.5875 14.7687 48.6608 0.614258 31.4812 0.614258C14.3017 0.614258 0.375 14.7687 0.375 32.2292C0.375 49.6896 14.3017 63.8441 31.4812 63.8441Z" fill="#ED9E8F"/>
<path d="M56.4086 51.1437C54.6287 48.8055 53.1763 46.2277 52.0929 43.484C51.0017 40.707 50.2757 37.7801 50.5805 35.2825C51.4702 27.92 48.5468 24.0453 48.5468 24.0453C48.5468 24.0453 45.4984 16.8124 36.4738 15.6496C27.4493 14.4868 19.5695 24.0453 19.5695 24.0453C19.5695 24.0453 13.7215 29.7284 6.47995 31.1492C6.47995 31.1492 24.8637 36.0039 24.8326 40.9403C24.7829 48.1985 20.2078 56.7231 20.2078 56.7231C20.2078 56.7231 19.3722 58.3184 18.0745 60.7635C22.2602 62.7975 26.8418 63.8503 31.4812 63.8441C41.6841 63.8441 50.7361 58.8533 56.4086 51.1437Z" fill="#1A0933"/>
<path d="M27.3398 27.9998C27.3398 27.9998 29.366 21.6699 34.147 21.6699C38.9281 21.6699 41.9678 25.2025 41.9678 25.2025C41.9678 25.2025 45.5885 28.1465 43.4161 31.9738C41.2436 35.8011 36.6088 36.5371 36.6088 36.5371C36.6088 36.5371 31.6585 37.3996 28.8857 31.7373C28.8414 31.6494 28.8326 31.5473 28.8611 31.4528C28.8897 31.3583 28.9535 31.2789 29.0388 31.2315C29.2671 31.1183 29.5122 31.3858 30.2364 32.4164C31.554 34.2912 33.8571 34.9184 33.8571 34.9184C33.8571 34.9184 39.3611 35.8036 39.9403 30.9444C40.5195 26.0852 35.4504 24.7618 35.4504 24.7618C35.4504 24.7618 30.6725 23.4365 27.3398 27.9998Z" fill="#FFFDF8"/>
</svg>
